<svg width="135" height="33" viewBox="0 0 135 33" fill="none" xmlns="http://www.w3.org/2000/svg">
<path d="M9 23.0175C7.784 23.0175 6.688 22.7935 5.712 22.3455C4.752 21.8815 3.936 21.2575 3.264 20.4735C2.592 19.6735 2.08 18.7455 1.728 17.6895C1.376 16.6335 1.2 15.5055 1.2 14.3055C1.2 12.6575 1.512 11.1855 2.136 9.88949C2.76 8.57749 3.648 7.54549 4.8 6.79349C5.968 6.02549 7.368 5.64149 9 5.64149C10.216 5.64149 11.304 5.86549 12.264 6.31349C13.24 6.76149 14.064 7.38549 14.736 8.18549C15.408 8.98549 15.92 9.90549 16.272 10.9455C16.64 11.9855 16.824 13.1055 16.824 14.3055C16.824 15.5535 16.648 16.6415 16.296 17.5695C15.944 18.4815 15.528 19.2735 15.048 19.9455L17.184 21.1215L16.152 23.0175L13.824 21.2895C13.232 21.7855 12.536 22.2015 11.736 22.5375C10.936 22.8575 10.024 23.0175 9 23.0175ZM8.952 21.0495C9.608 21.0495 10.2 20.9695 10.728 20.8095C11.272 20.6495 11.736 20.4495 12.12 20.2095L10.296 19.0575L11.256 17.3055L13.416 18.8655C13.8 18.2415 14.072 17.5615 14.232 16.8255C14.408 16.0735 14.496 15.2335 14.496 14.3055C14.496 13.4415 14.368 12.6095 14.112 11.8095C13.872 11.0095 13.512 10.2975 13.032 9.67349C12.568 9.03349 11.992 8.52949 11.304 8.16149C10.632 7.79349 9.864 7.60949 9 7.60949C7.848 7.60949 6.864 7.90549 6.048 8.49749C5.232 9.07349 4.608 9.86549 4.176 10.8735C3.744 11.8815 3.528 13.0255 3.528 14.3055C3.528 15.1695 3.648 16.0095 3.888 16.8255C4.128 17.6255 4.48 18.3455 4.944 18.9855C5.408 19.6255 5.976 20.1295 6.648 20.4975C7.32 20.8655 8.088 21.0495 8.952 21.0495ZM26.2738 23.0175C24.3378 23.0175 22.8178 22.4415 21.7138 21.2895C20.6098 20.1375 20.0578 18.4895 20.0578 16.3455V5.92949H22.3378V15.9855C22.3378 17.5855 22.6658 18.8255 23.3218 19.7055C23.9778 20.5855 24.9618 21.0255 26.2738 21.0255C27.6338 21.0255 28.6498 20.6015 29.3218 19.7535C29.9938 18.8895 30.3298 17.6335 30.3298 15.9855V5.92949H32.5378V16.2495C32.5378 17.6575 32.2738 18.8735 31.7458 19.8975C31.2338 20.9055 30.5058 21.6815 29.5618 22.2255C28.6338 22.7535 27.5378 23.0175 26.2738 23.0175ZM36.4959 22.7295V5.92949H38.7759V22.7295H36.4959ZM49.5613 23.0175C48.1053 23.0175 46.8173 22.6735 45.6973 21.9855C44.5773 21.2815 43.7053 20.2895 43.0813 19.0095C42.4573 17.7135 42.1453 16.1775 42.1453 14.4015C42.1453 12.6895 42.4573 11.1775 43.0813 9.86549C43.7213 8.53749 44.6173 7.50549 45.7693 6.76949C46.9373 6.01749 48.2973 5.64149 49.8493 5.64149C50.6493 5.64149 51.3773 5.72149 52.0333 5.88149C52.6893 6.02549 53.3053 6.23349 53.8813 6.50549L53.1853 8.42549C52.6893 8.18549 52.1773 7.99349 51.6493 7.84949C51.1373 7.70549 50.5293 7.63349 49.8253 7.63349C48.8013 7.63349 47.8813 7.89749 47.0653 8.42549C46.2653 8.95349 45.6333 9.71349 45.1693 10.7055C44.7053 11.6975 44.4733 12.8975 44.4733 14.3055C44.4733 15.6495 44.6973 16.8255 45.1453 17.8335C45.6093 18.8415 46.2413 19.6255 47.0413 20.1855C47.8573 20.7455 48.7853 21.0255 49.8253 21.0255C50.6093 21.0255 51.2893 20.9295 51.8653 20.7375C52.4413 20.5455 53.0013 20.2975 53.5453 19.9935L54.2413 21.8895C53.6493 22.2095 52.9693 22.4815 52.2013 22.7055C51.4493 22.9135 50.5693 23.0175 49.5613 23.0175ZM67.7953 23.0175L59.6353 15.0015V22.7295H57.3553V5.92949H59.6353V13.5855L66.7873 5.85749L68.3233 7.27349L61.7713 14.0895L69.3793 21.3855L67.7953 23.0175ZM71.7694 22.7295V5.92949H81.7294V7.89749H74.0494V13.0335H80.4574V14.9055H74.0494V22.7295H71.7694ZM90.6122 23.0175C89.3642 23.0175 88.2522 22.7935 87.2762 22.3455C86.3002 21.8815 85.4682 21.2575 84.7802 20.4735C84.1082 19.6735 83.5882 18.7455 83.2202 17.6895C82.8682 16.6335 82.6922 15.5055 82.6922 14.3055C82.6922 12.6575 83.0042 11.1855 83.6282 9.88949C84.2682 8.57749 85.1802 7.54549 86.3642 6.79349C87.5482 6.02549 88.9642 5.64149 90.6122 5.64149C91.8442 5.64149 92.9482 5.86549 93.9242 6.31349C94.9162 6.76149 95.7562 7.38549 96.4442 8.18549C97.1322 8.98549 97.6522 9.90549 98.0042 10.9455C98.3722 11.9855 98.5562 13.1055 98.5562 14.3055C98.5562 15.5055 98.3722 16.6335 98.0042 17.6895C97.6522 18.7455 97.1322 19.6735 96.4442 20.4735C95.7562 21.2575 94.9242 21.8815 93.9482 22.3455C92.9722 22.7935 91.8602 23.0175 90.6122 23.0175ZM90.6122 21.0495C91.8442 21.0495 92.8762 20.7535 93.7082 20.1615C94.5402 19.5695 95.1642 18.7695 95.5802 17.7615C96.0122 16.7375 96.2282 15.5855 96.2282 14.3055C96.2282 13.4415 96.1002 12.6095 95.8442 11.8095C95.5882 11.0095 95.2202 10.2975 94.7402 9.67349C94.2602 9.03349 93.6682 8.52949 92.9642 8.16149C92.2762 7.79349 91.4922 7.60949 90.6122 7.60949C89.4442 7.60949 88.4362 7.90549 87.5882 8.49749C86.7562 9.08949 86.1162 9.88949 85.6682 10.8975C85.2362 11.9055 85.0202 13.0415 85.0202 14.3055C85.0202 15.1695 85.1402 16.0095 85.3802 16.8255C85.6362 17.6255 86.0042 18.3455 86.4842 18.9855C86.9642 19.6255 87.5482 20.1295 88.2362 20.4975C88.9402 20.8655 89.7322 21.0495 90.6122 21.0495ZM108.87 23.0175C107.622 23.0175 106.51 22.7935 105.534 22.3455C104.558 21.8815 103.726 21.2575 103.038 20.4735C102.366 19.6735 101.846 18.7455 101.478 17.6895C101.126 16.6335 100.95 15.5055 100.95 14.3055C100.95 12.6575 101.262 11.1855 101.886 9.88949C102.526 8.57749 103.438 7.54549 104.622 6.79349C105.806 6.02549 107.222 5.64149 108.87 5.64149C110.102 5.64149 111.206 5.86549 112.182 6.31349C113.174 6.76149 114.014 7.38549 114.702 8.18549C115.39 8.98549 115.91 9.90549 116.262 10.9455C116.63 11.9855 116.814 13.1055 116.814 14.3055C116.814 15.5055 116.63 16.6335 116.262 17.6895C115.91 18.7455 115.39 19.6735 114.702 20.4735C114.014 21.2575 113.182 21.8815 112.206 22.3455C111.23 22.7935 110.118 23.0175 108.87 23.0175ZM108.87 21.0495C110.102 21.0495 111.134 20.7535 111.966 20.1615C112.798 19.5695 113.422 18.7695 113.838 17.7615C114.27 16.7375 114.486 15.5855 114.486 14.3055C114.486 13.4415 114.358 12.6095 114.102 11.8095C113.846 11.0095 113.478 10.2975 112.998 9.67349C112.518 9.03349 111.926 8.52949 111.222 8.16149C110.534 7.79349 109.75 7.60949 108.87 7.60949C107.702 7.60949 106.694 7.90549 105.846 8.49749C105.014 9.08949 104.374 9.88949 103.926 10.8975C103.494 11.9055 103.278 13.0415 103.278 14.3055C103.278 15.1695 103.398 16.0095 103.638 16.8255C103.894 17.6255 104.262 18.3455 104.742 18.9855C105.222 19.6255 105.806 20.1295 106.494 20.4975C107.198 20.8655 107.99 21.0495 108.87 21.0495ZM124.584 22.9215C123.672 22.9215 122.872 22.8975 122.184 22.8495C121.512 22.8015 120.84 22.7455 120.168 22.6815V5.97749C120.92 5.89749 121.656 5.84149 122.376 5.80949C123.096 5.76149 123.92 5.73749 124.848 5.73749C126.288 5.73749 127.528 5.96149 128.568 6.40949C129.624 6.85749 130.488 7.47349 131.16 8.25749C131.848 9.04149 132.352 9.95349 132.672 10.9935C133.008 12.0175 133.176 13.1215 133.176 14.3055C133.176 15.4735 133.008 16.5775 132.672 17.6175C132.336 18.6575 131.816 19.5775 131.112 20.3775C130.424 21.1615 129.536 21.7855 128.448 22.2495C127.376 22.6975 126.088 22.9215 124.584 22.9215ZM124.656 20.9295C126.096 20.9295 127.272 20.6495 128.184 20.0895C129.096 19.5295 129.768 18.7535 130.2 17.7615C130.632 16.7535 130.848 15.6015 130.848 14.3055C130.848 13.1535 130.632 12.0735 130.2 11.0655C129.768 10.0575 129.104 9.24949 128.208 8.64149C127.312 8.01749 126.168 7.70549 124.776 7.70549C124.312 7.70549 123.888 7.72149 123.504 7.75349C123.12 7.76949 122.768 7.79349 122.448 7.82549V20.8095C122.784 20.8575 123.136 20.8895 123.504 20.9055C123.872 20.9215 124.256 20.9295 124.656 20.9295Z" fill="white"/>
<rect y="30.7295" width="135" height="2" fill="white"/>
</svg>
